<?xml version="1.0" standalone="no"?>
<!DOCTYPE svg PUBLIC "-//W3C//DTD SVG 1.1//EN"
  "http://www.w3.org/Graphics/SVG/1.1/DTD/svg11.dtd">
<svg width="81.83799743652344mm" height="94.28300476074219mm" viewBox="-268.21099853515625 -285.97100830078125 81.83799743652344 94.28300476074219" xmlns="http://www.w3.org/2000/svg" version="1.1">
	<title>svgOutput</title>
	<desc>made with tinkercad</desc>
<path d="M -187.4550018310547 -261.8299865722656 L -187.4183807373047 -241.2270050048828 L -187.40960693359375 -236.2899932861328 L -187.3830108642578 -221.32054138183594 L -187.3730010986328 -215.68800354003906 L -196.60800170898438 -210.3562774658203 L -205.1611328125 -205.41822814941406 L -205.16099548339844 -205.41799926757812 L -206.26083374023438 -204.7833251953125 L -209.42361450195312 -202.95733642578125 L -211.36793518066406 -201.83480834960938 L -217.6856689453125 -198.1873321533203 L -220.4212188720703 -196.60800170898438 L -227.21099853515625 -192.68800354003906 L -233.97312927246094 -196.60800170898438 L -245.03475952148438 -203.02041625976562 L -245.03500366210938 -203.02000427246094 L -249.30599975585938 -205.49600219726562 L -249.30580139160156 -205.496337890625 L -262.1440124511719 -212.93861389160156 L -267.1300048828125 -215.82899475097656 L -267.139892578125 -221.4617919921875 L -267.1661682128906 -236.43099975585938 L -267.1705017089844 -238.89950561523438 L -267.17498779296875 -241.3679962158203 L -267.1748352050781 -241.3679962158203 L -267.20111083984375 -256.33831787109375 L -267.21099853515625 -261.9700012207031 L -266.9096374511719 -262.1440124511719 L -249.42391967773438 -272.2398681640625 L -249.4239959716797 -272.239990234375 L -248.85791015625 -272.5666809082031 L -245.16151428222656 -274.7008972167969 L -244.25819396972656 -275.2224426269531 L -236.8998565673828 -279.4709777832031 L -232.2373046875 -282.16302490234375 L -227.37399291992188 -284.97100830078125 L -209.5498046875 -274.6383361816406 L -205.2787628173828 -272.16241455078125 L -197.00048828125 -267.3634948730469 L -187.9966583251953 -262.1440124511719 L -187.4550018310547 -261.8299865722656 M -223.2992401123047 -260.62469482421875 L -221.1840057373047 -259.3027648925781 L -220.44357299804688 -258.84002685546875 L -219.11212158203125 -258.0079345703125 L -215.88882446289062 -255.99351501464844 L -215.10699462890625 -255.06954956054688 L -215.02699279785156 -254.97500610351562 L -214.8926239013672 -253.95199584960938 L -214.57699584960938 -251.5489959716797 L -214.45220947265625 -246.6504669189453 L -214.42953491210938 -245.75999450683594 L -214.40899658203125 -244.95399475097656 L -214.33303833007812 -241.2745819091797 L -214.2779998779297 -238.60899353027344 L -213.94287109375 -236.3369140625 L -213.87399291992188 -235.8699951171875 L -212.99200439453125 -236.0535430908203 L -212.96099853515625 -236.05999755859375 L -212.4914093017578 -236.33433532714844 L -211.72000122070312 -236.78500366210938 L -210.90199279785156 -237.61099243164062 L -210.4510040283203 -239.1179962158203 L -210.3877716064453 -241.26760864257812 L -210.25564575195312 -245.75999450683594 L -210.2100067138672 -247.31199645996094 L -210.3249969482422 -254.22500610351562 L -210.63900756835938 -257.5740051269531 L -212.39599609375 -258.9320068359375 L -212.7592010498047 -259.1527404785156 L -212.99200439453125 -259.2942199707031 L -215.820068359375 -261.012939453125 L -215.93699645996094 -261.0840148925781 L -216.9906463623047 -261.6975402832031 L -217.7573699951172 -262.1440124511719 L -220.86399841308594 -263.9530029296875 L -224.18499755859375 -265.8949890136719 L -224.2545166015625 -265.92730712890625 L -227.79400634765625 -267.5719909667969 L -228.88299560546875 -267.3810119628906 L -229.9759979248047 -266.80499267578125 L -230.7449951171875 -266.0710144042969 L -230.86199951171875 -265.4070129394531 L -228.73899841308594 -263.7669982910156 L -226.0211944580078 -262.1440124511719 L -224.7050018310547 -261.3580017089844 L -223.2992401123047 -260.62469482421875 M -240.82887268066406 -260.4634704589844 L -242.1918487548828 -259.71356201171875 L -244.80099487304688 -258.27801513671875 L -245.75999450683594 -257.6974792480469 L -252.12100219726562 -253.8470001220703 L -253.14999389648438 -252.8209991455078 L -253.3990020751953 -251.86900329589844 L -253.38999938964844 -250.10699462890625 L -253.072998046875 -249.73199462890625 L -252.4290008544922 -249.72000122070312 L -249.8070068359375 -250.85800170898438 L -245.75999450683594 -253.13925170898438 L -244.82200622558594 -253.66799926757812 L -244.29714965820312 -253.95199584960938 L -240.6383056640625 -255.93185424804688 L -240.1584014892578 -256.1915283203125 L -238.4980010986328 -257.0899963378906 L -236.6999969482422 -257.87701416015625 L -235.718994140625 -258.07000732421875 L -235.50059509277344 -257.96771240234375 L -232.68099975585938 -256.6470031738281 L -229.37600708007812 -254.83456420898438 L -227.76663208007812 -253.95199584960938 L -226.92599487304688 -253.49099731445312 L -222.9993896484375 -251.2473602294922 L -218.92100524902344 -248.91700744628906 L -218.81854248046875 -249.044921875 L -218.57899475097656 -249.343994140625 L -218.28399658203125 -250.5330047607422 L -218.25100708007812 -251.96400451660156 L -218.53799438476562 -253.01300048828125 L -219.85418701171875 -253.95199584960938 L -220.98171997070312 -254.7564239501953 L -221.0330047607422 -254.79299926757812 L -221.1840057373047 -254.88502502441406 L -226.1999969482422 -257.9419860839844 L -229.37600708007812 -259.756103515625 L -231.65699768066406 -261.0589904785156 L -233.81863403320312 -262.1440124511719 L -234.50062561035156 -262.4862976074219 L -235.01600646972656 -262.7449951171875 L -235.97799682617188 -262.8179931640625 L -237.5399932861328 -262.27301025390625 L -237.7744598388672 -262.1440124511719 L -237.87867736816406 -262.086669921875 L -240.235595703125 -260.7898864746094 L -240.82887268066406 -260.4634704589844 M -257.6659851074219 -256.43701171875 L -247.78082275390625 -262.1440124511719 L -244.6414794921875 -263.9564208984375 L -244.98785400390625 -264.5563659667969 L -246.9825897216797 -268.0113525390625 L -256.4484558105469 -262.5462951660156 L -257.1452331542969 -262.1440124511719 L -257.6659851074219 -261.8433532714844 L -262.1440124511719 -259.25799560546875 L -262.3380126953125 -259.14599609375 L -262.30682373046875 -241.35939025878906 L -262.1440124511719 -241.35910034179688 L -258.1910095214844 -241.35211181640625 L -257.6659851074219 -241.3511962890625 L -257.6393737792969 -241.35113525390625 L -257.6399230957031 -241.67025756835938 L -257.64715576171875 -245.75999450683594 L -257.65167236328125 -248.3324432373047 L -257.655517578125 -250.49681091308594 L -257.6659851074219 -256.43701171875 M -248.75399780273438 -241.2169952392578 L -248.6629638671875 -241.33526611328125 L -248.07899475097656 -242.093994140625 L -246.60499572753906 -243.24600219726562 L -242.46926879882812 -245.75999450683594 L -240.1529998779297 -247.16799926757812 L -236.30126953125 -249.5107879638672 L -234.572998046875 -250.56199645996094 L -232.41200256347656 -252.22900390625 L -234.43800354003906 -253.35800170898438 L -235.86892700195312 -253.95199584960938 L -236.1580047607422 -254.07200622558594 L -236.36585998535156 -253.95199584960938 L -238.2405548095703 -252.86972045898438 L -245.75999450683594 -248.52867126464844 L -249.99098205566406 -246.08607482910156 L -250.55580139160156 -245.75999450683594 L -253.23199462890625 -244.21499633789062 L -253.3679962158203 -242.2969970703125 L -253.38136291503906 -241.34361267089844 L -253.4126739501953 -239.1077880859375 L -253.42942810058594 -237.9123992919922 L -253.4505157470703 -236.40675354003906 L -253.4689483642578 -235.091064453125 L -253.50900268554688 -232.23199462890625 L -253.52821350097656 -229.37600708007812 L -253.56399536132812 -224.05499267578125 L -251.84100341796875 -222.88299560546875 L -250.4929962158203 -222.13400268554688 L -249.6750030517578 -221.96499633789062 L -249.41400146484375 -224.7270050048828 L -249.3272705078125 -229.37600708007812 L -249.29600524902344 -231.052001953125 L -249.17958068847656 -236.39920043945312 L -249.17384338378906 -236.66285705566406 L -249.1510009765625 -237.71200561523438 L -248.75399780273438 -241.2169952392578 M -227.35400390625 -273.93701171875 L -214.30332946777344 -266.3711853027344 L -211.97650146484375 -270.4179382324219 L -227.36399841308594 -279.3380126953125 L -232.02682495117188 -276.6459655761719 L -238.8473358154297 -272.7081604003906 L -242.72010803222656 -270.4722595214844 L -240.3789825439453 -266.41729736328125 L -233.65866088867188 -270.2971496582031 L -227.35400390625 -273.93701171875 M -211.38499450683594 -223.51300048828125 L -212.99200439453125 -222.63705444335938 L -214.59725952148438 -221.76205444335938 L -215.6577606201172 -221.1840057373047 L -217.4739990234375 -220.19400024414062 L -218.99237060546875 -219.53089904785156 L -219.22799682617188 -219.42799377441406 L -220.1649932861328 -219.23199462890625 L -224.10658264160156 -221.1840057373047 L -225.40899658203125 -221.82899475097656 L -225.48428344726562 -221.87225341796875 L -226.60252380371094 -222.51478576660156 L -227.11318969726562 -222.80821228027344 L -229.37600708007812 -224.10838317871094 L -232.03192138671875 -225.63442993164062 L -234.0970001220703 -226.8209991455078 L -235.85299682617188 -227.73300170898438 L -236.4735565185547 -227.8136444091797 L -236.93800354003906 -227.87399291992188 L -237.2530059814453 -227.64999389648438 L -237.42999267578125 -227.22500610351562 L -237.41635131835938 -226.1739959716797 L -237.41099548339844 -225.76199340820312 L -237.1699981689453 -224.5749969482422 L -236.656005859375 -223.71800231933594 L -234.08670043945312 -222.06082153320312 L -233.5800018310547 -221.73399353027344 L -232.64471435546875 -221.1840057373047 L -229.37600708007812 -219.26181030273438 L -226.64700317382812 -217.65699768066406 L -222.22799682617188 -215.2989959716797 L -219.6840057373047 -214.3209991455078 L -216.72450256347656 -215.60284423828125 L -216.55099487304688 -215.67799377441406 L -214.85140991210938 -216.6005401611328 L -212.99200439453125 -217.60983276367188 L -212.38894653320312 -217.9371795654297 L -210.61700439453125 -218.8990020751953 L -202.76699829101562 -223.43099975585938 L -202.5260009765625 -225.2779998779297 L -202.44900512695312 -227.38299560546875 L -202.70199584960938 -227.8459930419922 L -203.1750030517578 -227.99000549316406 L -205.83200073242188 -226.68600463867188 L -211.38499450683594 -223.51300048828125 M -232.1199951171875 -216.5989990234375 L -235.8932647705078 -218.91893005371094 L -237.85000610351562 -220.1219940185547 L -239.2433319091797 -221.1840057373047 L -239.9679718017578 -221.73631286621094 L -240.5959930419922 -222.21499633789062 L -241.03199768066406 -224.22999572753906 L -241.20599365234375 -227.57699584960938 L -241.22390747070312 -229.37600708007812 L -241.29371643066406 -236.38525390625 L -241.2989959716797 -236.91600036621094 L -241.37020874023438 -241.32237243652344 L -241.37991333007812 -241.92298889160156 L -241.3800048828125 -241.92799377441406 L -242.27159118652344 -241.323974609375 L -243.35499572753906 -240.58999633789062 L -245.37899780273438 -239.2239990234375 L -245.36349487304688 -236.3924560546875 L -245.32699584960938 -229.72999572753906 L -245.32200622558594 -229.37600708007812 L -245.22999572753906 -222.84800720214844 L -245.0905303955078 -221.1840057373047 L -244.9550018310547 -219.56700134277344 L -242.2764129638672 -217.72157287597656 L -242.2480010986328 -217.70199584960938 L -238.0387420654297 -215.18759155273438 L -236.66000366210938 -214.36399841308594 L -234.21592712402344 -212.99200439453125 L -230.9720001220703 -211.17100524902344 L -229.37600708007812 -210.41091918945312 L -227.96299743652344 -209.73800659179688 L -226.91799926757812 -209.9029998779297 L -225.73800659179688 -210.37399291992188 L -224.77000427246094 -210.9810028076172 L -224.36599731445312 -211.552001953125 L -226.29136657714844 -212.99200439453125 L -226.63900756835938 -213.2519989013672 L -229.37600708007812 -214.92335510253906 L -232.1199951171875 -216.5989990234375 M -257.60400390625 -221.32899475097656 L -257.6123962402344 -226.08981323242188 L -257.61822509765625 -229.37600708007812 L -257.6187744140625 -229.69935607910156 L -257.62750244140625 -234.63140869140625 L -257.6306457519531 -236.4141387939453 L -257.6659851074219 -236.41419982910156 L -257.84332275390625 -236.41452026367188 L -262.1440124511719 -236.422119140625 L -262.2981872558594 -236.42239379882812 L -262.2669982910156 -218.63699340820312 L -262.1440124511719 -218.56570434570312 L -257.6659851074219 -215.96981811523438 L -252.5291290283203 -212.99200439453125 L -246.87911987304688 -209.7167205810547 L -244.99586486816406 -212.99200439453125 L -244.5526580810547 -213.76280212402344 L -245.75999450683594 -214.46273803710938 L -257.60400390625 -221.32899475097656 M -235.3675079345703 -241.311767578125 L -235.45599365234375 -241.03399658203125 L -235.62899780273438 -240.22300720214844 L -235.72300720214844 -239.3979949951172 L -235.73500061035156 -238.56700134277344 L -235.66600036621094 -237.73899841308594 L -235.6345977783203 -237.5679931640625 L -235.51600646972656 -236.9219970703125 L -235.35935974121094 -236.37477111816406 L -235.28700256347656 -236.1219940185547 L -234.9810028076172 -235.3489990234375 L -234.6009979248047 -234.61000061035156 L -234.14999389648438 -233.91099548339844 L -233.63400268554688 -233.25900268554688 L -233.4512481689453 -233.06993103027344 L -233.05599975585938 -232.66099548339844 L -232.42300415039062 -232.1230010986328 L -231.74000549316406 -231.6490020751953 L -231.01499938964844 -231.24400329589844 L -230.25399780273438 -230.91200256347656 L -229.46400451660156 -230.65699768066406 L -229.37600708007812 -230.6377716064453 L -229.17970275878906 -230.59487915039062 L -228.6540069580078 -230.47999572753906 L -227.8300018310547 -230.38299560546875 L -227.00100708007812 -230.3679962158203 L -226.1750030517578 -230.43499755859375 L -225.37144470214844 -230.5797576904297 L -225.35899353027344 -230.58200073242188 L -224.56300354003906 -230.8090057373047 L -223.79200744628906 -231.11300659179688 L -223.05599975585938 -231.49099731445312 L -222.36000061035156 -231.94000244140625 L -221.71099853515625 -232.4550018310547 L -221.1840057373047 -232.966064453125 L -221.11599731445312 -233.03199768066406 L -221.1088409423828 -233.0404510498047 L -220.58099365234375 -233.66400146484375 L -220.11099243164062 -234.3459930419922 L -219.9695281982422 -234.6014862060547 L -219.70899963378906 -235.07200622558594 L -219.38099670410156 -235.83299255371094 L -219.21749877929688 -236.3462371826172 L -219.12899780273438 -236.62399291992188 L -218.9550018310547 -237.43600463867188 L -218.94012451171875 -237.5679931640625 L -218.86199951171875 -238.26100158691406 L -218.85000610351562 -239.09100341796875 L -218.91900634765625 -239.91900634765625 L -219.06900024414062 -240.73699951171875 L -219.22555541992188 -241.28323364257812 L -219.29800415039062 -241.53599548339844 L -219.60400390625 -242.3090057373047 L -219.98399353027344 -243.0489959716797 L -220.4340057373047 -243.7480010986328 L -220.9510040283203 -244.3990020751953 L -221.13363647460938 -244.58827209472656 L -221.5279998779297 -244.9969940185547 L -222.16099548339844 -245.53599548339844 L -222.4837646484375 -245.75999450683594 L -222.843994140625 -246.00999450683594 L -223.56900024414062 -246.41400146484375 L -224.33099365234375 -246.74600219726562 L -225.1199951171875 -247.0019989013672 L -225.40489196777344 -247.06382751464844 L -225.93099975585938 -247.17799377441406 L -226.7550048828125 -247.27499389648438 L -227.58399963378906 -247.2899932861328 L -228.41000366210938 -247.22300720214844 L -229.21347045898438 -247.0780792236328 L -229.22500610351562 -247.0760040283203 L -229.37600708007812 -247.03318786621094 L -230.02200317382812 -246.85000610351562 L -230.79200744628906 -246.54600524902344 L -231.5290069580078 -246.16700744628906 L -232.15989685058594 -245.75999450683594 L -232.22500610351562 -245.71800231933594 L -232.8730010986328 -245.2030029296875 L -233.46800231933594 -244.6269989013672 L -233.47608947753906 -244.617431640625 L -234.0030059814453 -243.99400329589844 L -234.4739990234375 -243.31199645996094 L -234.875 -242.58599853515625 L -235.20399475097656 -241.8249969482422 L -235.3675079345703 -241.311767578125 M -196.60800170898438 -241.2432403564453 L -192.28639221191406 -241.23561096191406 L -192.3179931640625 -259.0220031738281 L -196.60800170898438 -261.5088806152344 L -196.99053955078125 -261.73065185546875 L -197.70358276367188 -262.1440124511719 L -207.7054443359375 -267.9420166015625 L -210.03233337402344 -263.89520263671875 L -207.01161193847656 -262.1440124511719 L -206.16236877441406 -261.65167236328125 L -203.74929809570312 -260.25274658203125 L -202.69277954101562 -259.6402587890625 L -196.9810028076172 -256.3290100097656 L -196.96234130859375 -245.75999450683594 L -196.95701599121094 -242.74612426757812 L -196.95436096191406 -241.2438507080078 L -196.60800170898438 -241.2432403564453 M -192.24600219726562 -218.51300048828125 L -192.27761840820312 -236.29859924316406 L -196.60800170898438 -236.30625915527344 L -196.9456329345703 -236.30685424804688 L -196.9333953857422 -229.37600708007812 L -196.92759704589844 -226.08804321289062 L -196.91900634765625 -221.2220001220703 L -209.9437713623047 -213.70199584960938 L -209.5338592529297 -212.99200439453125 L -207.6027069091797 -209.64715576171875 L -201.8090362548828 -212.99200439453125 L -196.60800170898438 -215.9947052001953 L -192.24600219726562 -218.51300048828125 M -229.37600708007812 -204.96450805664062 L -240.2816619873047 -211.28680419921875 L -242.6080780029297 -207.24081420898438 L -229.37600708007812 -199.5702362060547 L -227.2209930419922 -198.3209991455078 L -222.55897521972656 -201.01251220703125 L -216.71986389160156 -204.3835906982422 L -211.86521911621094 -207.18630981445312 L -214.20620727539062 -211.24102783203125 L -221.85098266601562 -206.8272247314453 L -227.2310028076172 -203.7209930419922 L -229.37600708007812 -204.96450805664062 M -202.5570068359375 -234.85000610351562 L -202.53060913085938 -236.3167266845703 L -202.4879913330078 -238.68385314941406 L -202.44174194335938 -241.25355529785156 L -202.37899780273438 -244.74000549316406 L -202.40048217773438 -245.75999450683594 L -202.49600219726562 -250.29600524902344 L -202.83799743652344 -253.01300048828125 L -203.58900451660156 -253.85699462890625 L -204.5590057373047 -254.5489959716797 L -205.4709930419922 -254.9290008544922 L -206.0500030517578 -254.83700561523438 L -206.3679962158203 -251.8459930419922 L -206.49562072753906 -245.75999450683594 L -206.5050048828125 -245.31300354003906 L -206.60182189941406 -241.9532470703125 L -206.62176513671875 -241.26095581054688 L -206.6656494140625 -239.73777770996094 L -206.69700622558594 -238.64999389648438 L -206.8124542236328 -237.33953857421875 L -206.90188598632812 -236.324462890625 L -206.98500061035156 -235.38099670410156 L -209.65499877929688 -233.4199981689453 L -212.99200439453125 -231.3939208984375 L -214.6817169189453 -230.3679962158203 L -215.41299438476562 -229.9239959716797 L -216.31405639648438 -229.37600708007812 L -218.2969207763672 -228.17007446289062 L -221.2830047607422 -226.35400390625 L -222.44676208496094 -225.5140838623047 L -222.7239990234375 -225.31399536132812 L -223.125 -224.81399536132812 L -221.34500122070312 -223.54299926757812 L -221.2987823486328 -223.52572631835938 L -220.3470001220703 -223.1699981689453 L -218.968994140625 -223.47799682617188 L -216.40335083007812 -224.89031982421875 L -212.99200439453125 -226.76820373535156 L -211.31199645996094 -227.6929931640625 L -208.39723205566406 -229.37600708007812 L -202.82400512695312 -232.593994140625 L -202.5570068359375 -234.85000610351562 z" fill="none" stroke="rgb(255,0,0)" stroke-width="0.001mm" />
</svg>